name rise35.5848peak51.9257fall54.8793.mot
datacolumns 19
datarows 29
range 1.73499200000000 1.78166400000000
endheader
time	ground_force1_vx	ground_force1_vy	ground_force1_vz	ground_force1_px	ground_force1_py	ground_force1_pz	ground_force2_vx	ground_force2_vy	ground_force2_vz	ground_force2_px	ground_force2_py	ground_force2_pz	ground_torque1_x	ground_torque1_y	ground_torque1_z	ground_torque2_x	ground_torque2_y	ground_torque2_z	
1.73499200000000	-8.07232400000000	46.46850600000000	-11.18109300000000	0.30613400000000	0.00000000000000	0.07919500000000	-53.81624200000000	798.86771399999998	-43.08199600000000	0.09988500000000	0.00000000000000	-0.07520100000000	0.00000000000000	-7.32053000000000	0.00000000000000	0.00000000000000	-14.43903400000000	0.00000000000000	
1.73666000000000	-8.65139600000000	53.04627400000000	-12.29522800000000	0.30952100000000	0.00000000000000	0.07990700000000	-54.64897700000000	796.14115100000004	-42.73673700000000	0.09895700000000	0.00000000000000	-0.07508300000000	0.00000000000000	-8.11408900000000	0.00000000000000	0.00000000000000	-14.43018700000000	0.00000000000000	
1.73832400000000	-9.07260300000000	59.54409000000000	-13.26892300000000	0.31274100000000	0.00000000000000	0.08056800000000	-55.49839800000000	793.30052999999998	-42.38207600000000	0.09802800000000	0.00000000000000	-0.07496300000000	0.00000000000000	-8.82779600000000	0.00000000000000	0.00000000000000	-14.42503000000000	0.00000000000000	
1.73998900000000	-9.32399200000000	65.89727700000000	-14.08537600000000	0.31581400000000	0.00000000000000	0.08118200000000	-56.36365000000000	790.34289200000001	-42.01780300000000	0.09710100000000	0.00000000000000	-0.07484200000000	0.00000000000000	-9.44950700000000	0.00000000000000	0.00000000000000	-14.42345200000000	0.00000000000000	
1.74165300000000	-9.40160800000000	72.06720000000000	-14.73687100000000	0.31875700000000	0.00000000000000	0.08175500000000	-57.24376500000000	787.26523199999997	-41.64370200000000	0.09617400000000	0.00000000000000	-0.07472000000000	0.00000000000000	-9.97288400000000	0.00000000000000	0.00000000000000	-14.42531900000000	0.00000000000000	
1.74332000000000	-9.30874500000000	78.04057100000000	-15.22410300000000	0.32158300000000	0.00000000000000	0.08229200000000	-58.13766500000000	784.06451200000004	-41.25955100000000	0.09524800000000	0.00000000000000	-0.07459600000000	0.00000000000000	-10.39707400000000	0.00000000000000	0.00000000000000	-14.43048200000000	0.00000000000000	
1.74499000000000	-9.05473700000000	83.82678600000000	-15.55493300000000	0.32430200000000	0.00000000000000	0.08279700000000	-59.04416100000000	780.73766899999998	-40.86512800000000	0.09432600000000	0.00000000000000	-0.07447100000000	0.00000000000000	-10.72598900000000	0.00000000000000	0.00000000000000	-14.43877100000000	0.00000000000000	
1.74665200000000	-8.65345800000000	89.45385200000000	-15.74276900000000	0.32692400000000	0.00000000000000	0.08327300000000	-59.96195400000000	777.28162999999995	-40.46020700000000	0.09340600000000	0.00000000000000	-0.07434400000000	0.00000000000000	-10.96732400000000	0.00000000000000	0.00000000000000	-14.44999500000000	0.00000000000000	
1.74832200000000	-8.12171200000000	94.96348600000000	-15.80476300000000	0.32945700000000	0.00000000000000	0.08372200000000	-60.88963600000000	773.69332399999996	-40.04456800000000	0.09249100000000	0.00000000000000	-0.07421600000000	0.00000000000000	-11.13142100000000	0.00000000000000	0.00000000000000	-14.46395000000000	0.00000000000000	
1.74998700000000	-7.47766800000000	100.40593100000000	-15.76002700000000	0.33190600000000	0.00000000000000	0.08414800000000	-61.82569400000000	769.96969200000001	-39.61798900000000	0.09158000000000	0.00000000000000	-0.07408600000000	0.00000000000000	-11.23011400000000	0.00000000000000	0.00000000000000	-14.48040800000000	0.00000000000000	
1.75165900000000	-6.73944700000000	105.83497300000001	-15.62798800000000	0.33427600000000	0.00000000000000	0.08455100000000	-62.76850700000000	766.10770200000002	-39.18025800000000	0.09067400000000	0.00000000000000	-0.07395500000000	0.00000000000000	-11.27565100000000	0.00000000000000	0.00000000000000	-14.49913000000000	0.00000000000000	
1.75332100000000	-5.92396100000000	111.30350400000000	-15.42699700000000	0.33657300000000	0.00000000000000	0.08493500000000	-63.71635500000000	762.10436000000004	-38.73117000000000	0.08977400000000	0.00000000000000	-0.07382300000000	0.00000000000000	-11.27975700000000	0.00000000000000	0.00000000000000	-14.51985500000000	0.00000000000000	
1.75499200000000	-5.04604200000000	116.85989600000001	-15.17326800000000	0.33879800000000	0.00000000000000	0.08530100000000	-64.66741700000000	757.95672700000000	-38.27053100000000	0.08888100000000	0.00000000000000	-0.07368900000000	0.00000000000000	-11.25290000000000	0.00000000000000	0.00000000000000	-14.54230900000000	0.00000000000000	
1.75665700000000	-4.11788300000000	122.54532900000000	-14.88015100000000	0.34095400000000	0.00000000000000	0.08564900000000	-65.61977800000000	753.66192899999999	-37.79815700000000	0.08799500000000	0.00000000000000	-0.07355300000000	0.00000000000000	-11.20377100000000	0.00000000000000	0.00000000000000	-14.56620200000000	0.00000000000000	
1.75832500000000	-3.14877800000000	128.39208600000001	-14.55775400000000	0.34304400000000	0.00000000000000	0.08598300000000	-66.57143200000000	749.21717400000000	-37.31388300000000	0.08711700000000	0.00000000000000	-0.07341600000000	0.00000000000000	-11.13899100000000	0.00000000000000	0.00000000000000	-14.59123100000000	0.00000000000000	
1.75999000000000	-2.14512500000000	134.42280000000000	-14.21287300000000	0.34506900000000	0.00000000000000	0.08630100000000	-67.52028300000001	744.61976300000003	-36.81755900000000	0.08624600000000	0.00000000000000	-0.07327800000000	0.00000000000000	-11.06302800000000	0.00000000000000	0.00000000000000	-14.61707700000000	0.00000000000000	
1.76165500000000	-1.11064500000000	140.65051099999999	-13.84917900000000	0.34703000000000	0.00000000000000	0.08660600000000	-68.46415900000000	739.86710700000003	-36.30905600000000	0.08538500000000	0.00000000000000	-0.07313700000000	0.00000000000000	-10.97827700000000	0.00000000000000	0.00000000000000	-14.64341200000000	0.00000000000000	
1.76332500000000	-0.04676700000000	147.07939800000000	-13.46760100000000	0.34892800000000	0.00000000000000	0.08689900000000	-69.40080600000000	734.95673799999997	-35.78826700000000	0.08453200000000	0.00000000000000	-0.07299600000000	0.00000000000000	-10.88529500000000	0.00000000000000	0.00000000000000	-14.66989300000000	0.00000000000000	
1.76499100000000	1.04689400000000	153.70599600000000	-13.06684500000000	0.35076300000000	0.00000000000000	0.08718000000000	-70.32790199999999	729.88633000000004	-35.25510900000000	0.08368900000000	0.00000000000000	-0.07285300000000	0.00000000000000	-10.78312000000000	0.00000000000000	0.00000000000000	-14.69616800000000	0.00000000000000	
1.76665700000000	2.17200400000000	160.52072300000000	-12.64398400000000	0.35253600000000	0.00000000000000	0.08744900000000	-71.24306100000000	724.65370900000005	-34.70952500000000	0.08285600000000	0.00000000000000	-0.07270800000000	0.00000000000000	-10.66965000000000	0.00000000000000	0.00000000000000	-14.72187900000000	0.00000000000000	
1.76831900000000	3.33097600000000	167.50954300000001	-12.19505200000000	0.35424700000000	0.00000000000000	0.08770800000000	-72.14383900000000	719.25687100000005	-34.15148800000000	0.08203300000000	0.00000000000000	-0.07256200000000	0.00000000000000	-10.54204400000000	0.00000000000000	0.00000000000000	-14.74665400000000	0.00000000000000	
1.76998600000000	4.52648800000000	174.65561500000001	-11.71561700000000	0.35589500000000	0.00000000000000	0.08795800000000	-73.02773900000000	713.69399599999997	-33.58099900000000	0.08122100000000	0.00000000000000	-0.07241500000000	0.00000000000000	-10.39709500000000	0.00000000000000	0.00000000000000	-14.77012000000000	0.00000000000000	
1.77165900000000	5.76105400000000	181.94081600000001	-11.20127200000000	0.35748000000000	0.00000000000000	0.08819700000000	-73.89222200000000	707.96346800000003	-32.99809400000000	0.08041800000000	0.00000000000000	-0.07226600000000	0.00000000000000	-10.23157500000000	0.00000000000000	0.00000000000000	-14.79189500000000	0.00000000000000	
1.77331900000000	7.03669600000000	189.34704099999999	-10.64804700000000	0.35900200000000	0.00000000000000	0.08842800000000	-74.73471100000000	702.06388500000003	-32.40284000000000	0.07962700000000	0.00000000000000	-0.07211500000000	0.00000000000000	-10.04251200000000	0.00000000000000	0.00000000000000	-14.81159400000000	0.00000000000000	
1.77498700000000	8.35470600000000	196.85723400000001	-10.05270000000000	0.36046000000000	0.00000000000000	0.08865100000000	-75.55260100000000	695.99407799999994	-31.79534000000000	0.07884600000000	0.00000000000000	-0.07196400000000	0.00000000000000	-9.82740800000000	0.00000000000000	0.00000000000000	-14.82882800000000	0.00000000000000	
1.77665700000000	9.71549800000000	204.45612600000001	-9.41291800000000	0.36185400000000	0.00000000000000	0.08886500000000	-76.34326600000000	689.75312699999995	-31.17573300000000	0.07807500000000	0.00000000000000	-0.07181000000000	0.00000000000000	-9.58437500000000	0.00000000000000	0.00000000000000	-14.84320700000000	0.00000000000000	
1.77832400000000	11.11855400000000	212.13068300000000	-8.72740600000000	0.36318300000000	0.00000000000000	0.08907100000000	-77.10406399999999	683.34037300000000	-30.54419700000000	0.07731500000000	0.00000000000000	-0.07165500000000	0.00000000000000	-9.31221400000000	0.00000000000000	0.00000000000000	-14.85434100000000	0.00000000000000	
1.77999000000000	12.56244400000000	219.87028699999999	-7.99589000000000	0.36444600000000	0.00000000000000	0.08927000000000	-77.83235100000000	676.75543100000004	-29.90094700000000	0.07656500000000	0.00000000000000	-0.07149900000000	0.00000000000000	-9.01042500000000	0.00000000000000	0.00000000000000	-14.86184100000000	0.00000000000000	
1.78166400000000	14.04490200000000	227.66669600000000	-7.21905900000000	0.36564400000000	0.00000000000000	0.08946200000000	-78.52548400000001	669.99820499999998	-29.24623800000000	0.07582600000000	0.00000000000000	-0.07134200000000	0.00000000000000	-8.67917300000000	0.00000000000000	0.00000000000000	-14.86531900000000	0.00000000000000	
